<?xml version="1.0" encoding="iso-8859-1"?>
<!-- Generator: Adobe Illustrator 19.0.0, SVG Export Plug-In . SVG Version: 6.00 Build 0)  -->
<svg version="1.1" id="Capa_1" xmlns="http://www.w3.org/2000/svg" xmlns:xlink="http://www.w3.org/1999/xlink" x="0px" y="0px"
	 viewBox="0 0 480 480" style="enable-background:new 0 0 480 480;" xml:space="preserve">
<g>
	<path style="fill:#78B9EB;" d="M442.881,410.56c-6.406-29.478-32.474-50.519-62.64-50.56h-76.24v16
		c-0.053,17.651-14.349,31.947-32,32h-64c-17.651-0.053-31.947-14.349-32-32v-16h-76.24c-30.166,0.041-56.234,21.082-62.64,50.56
		L24.001,472h432L442.881,410.56z"/>
	<path style="fill:#78B9EB;" d="M144.001,200v-56h192v56c17.673,0,32,14.327,32,32v-96c0-70.692-57.308-128-128-128
		s-128,57.308-128,128v96C112.001,214.327,126.328,200,144.001,200z"/>
</g>
<g>
	<path style="fill:#1E81CE;" d="M450.697,408.856c-7.327-33.08-36.575-56.682-70.456-56.856h-68.24v-8.8
		c18.611-3.827,31.976-20.199,32-39.2v-32.8c18.611-3.827,31.976-20.199,32-39.2v-96c0-75.111-60.889-136-136-136
		s-136,60.889-136,136v96c0.024,19.001,13.389,35.373,32,39.2V304c0.024,19.001,13.389,35.373,32,39.2v8.8h-68.24
		c-33.891,0.179-63.144,23.796-70.464,56.888l-13.12,61.44c-0.923,4.321,1.831,8.572,6.151,9.495c0.55,0.117,1.11,0.177,1.673,0.177
		h432c4.418,0,8-3.581,8.001-7.999c0-0.562-0.059-1.123-0.177-1.673L450.697,408.856z M184.001,360v-16h112v32
		c0,13.255-10.745,24-24,24h-64c-13.255,0-24-10.745-24-24V360z M256.001,176c-4.418,0-8,3.582-8,8v16h-16v-16c0-4.418-3.582-8-8-8
		h-64c-4.418,0-8,3.582-8,8v-32h176v32c0-4.418-3.582-8-8-8H256.001z M312.001,192v48h-48v-48H312.001z M216.001,192v48h-48v-48
		H216.001z M344.001,254.632v-45.16c0.256,0.096,0.52,0.144,0.8,0.24c0.44,0.176,0.872,0.384,1.304,0.584
		c0.887,0.413,1.747,0.88,2.576,1.4c0.392,0.24,0.8,0.48,1.16,0.744c0.943,0.674,1.838,1.412,2.68,2.208
		c0.176,0.168,0.376,0.312,0.544,0.48c0.977,0.989,1.869,2.06,2.664,3.2c0.216,0.32,0.4,0.672,0.608,1
		c0.547,0.87,1.038,1.773,1.472,2.704c0.197,0.437,0.381,0.885,0.552,1.344c0.365,0.938,0.664,1.901,0.896,2.88
		c0.112,0.44,0.24,0.864,0.32,1.312c0.281,1.461,0.423,2.945,0.424,4.432C359.988,242.168,353.582,251.229,344.001,254.632
		L344.001,254.632z M120.001,136c0-66.274,53.726-120,120-120s120,53.726,120,120v64c-0.384-0.28-0.8-0.52-1.192-0.8
		s-0.68-0.464-1.024-0.688c-1.882-1.233-3.865-2.304-5.928-3.2c-0.296-0.128-0.608-0.232-0.912-0.352
		c-2.2-0.911-4.479-1.621-6.808-2.12l-0.136-0.04V144c0-4.418-3.582-8-8-8h-192c-4.418,0-8,3.582-8,8v48.8h-0.112
		c-2.329,0.499-4.608,1.209-6.808,2.12c-0.304,0.12-0.616,0.224-0.912,0.352c-2.063,0.896-4.046,1.967-5.928,3.2
		c-0.344,0.224-0.688,0.448-1.024,0.688s-0.8,0.512-1.192,0.8L120.001,136z M120.001,232c0.01-1.48,0.16-2.956,0.448-4.408
		c0.08-0.448,0.208-0.872,0.32-1.312c0.237-0.981,0.536-1.945,0.896-2.888c0.176-0.448,0.352-0.896,0.552-1.328
		c0.432-0.935,0.923-1.841,1.472-2.712c0.208-0.328,0.392-0.68,0.608-1c0.795-1.14,1.687-2.211,2.664-3.2
		c0.168-0.168,0.368-0.312,0.544-0.48c0.842-0.796,1.737-1.534,2.68-2.208c0.376-0.264,0.8-0.504,1.16-0.744
		c0.829-0.52,1.689-0.987,2.576-1.4c0.432-0.2,0.864-0.408,1.304-0.584c0.248-0.096,0.52-0.144,0.8-0.24v45.16
		C126.425,251.258,120.007,242.183,120.001,232L120.001,232z M152.001,304v-56c0,4.418,3.582,8,8,8h64c4.418,0,8-3.582,8-8v-32h16
		v32c0,4.418,3.582,8,8,8h64c4.418,0,8-3.582,8-8v56c0,13.255-10.745,24-24,24h-128C162.746,328,152.001,317.255,152.001,304z
		 M382.777,464l-6.888-41.32l-15.776,2.64l6.448,38.68h-253.12l6.448-38.68l-15.776-2.64L97.225,464H33.889l11.048-51.744
		c5.7-25.743,28.458-44.114,54.824-44.256h68.24v8c0.026,22.08,17.92,39.974,40,40h64c22.08-0.026,39.974-17.92,40-40v-8h68.24
		c26.357,0.14,49.109,18.5,54.816,44.232L446.113,464H382.777z"/>
	<circle style="fill:#1E81CE;" cx="288.001" cy="208" r="16"/>
	<circle style="fill:#1E81CE;" cx="192.001" cy="208" r="16"/>
</g>
<g>
</g>
<g>
</g>
<g>
</g>
<g>
</g>
<g>
</g>
<g>
</g>
<g>
</g>
<g>
</g>
<g>
</g>
<g>
</g>
<g>
</g>
<g>
</g>
<g>
</g>
<g>
</g>
<g>
</g>
</svg>
